<svg xmlns="http://www.w3.org/2000/svg" xmlns:xlink="http://www.w3.org/1999/xlink" width="256" height="256" preserveAspectRatio="xMidYMid" version="1.1" viewBox="0 0 256 256"><defs><linearGradient id="linearGradient-1" x1="67.622%" x2="37.049%" y1="100.513%" y2="13.665%"><stop offset="17%" stop-color="#FF1F51"/><stop offset="28%" stop-color="#FF3648"/><stop offset="47%" stop-color="#FF593B"/><stop offset="65%" stop-color="#FF7231"/><stop offset="81%" stop-color="#FF812B"/><stop offset="94%" stop-color="#FF8629"/></linearGradient><linearGradient id="linearGradient-2" x1="61.538%" x2="43.606%" y1="22.904%" y2="91.688%"><stop offset="2%" stop-color="#9039D0"/><stop offset="63%" stop-color="#FF1F51"/></linearGradient><linearGradient id="linearGradient-3" x1=".475%" x2="81.833%" y1="8.066%" y2="97.528%"><stop offset="11%" stop-color="#9039D0"/><stop offset="39%" stop-color="#FF1F51"/><stop offset="63%" stop-color="#FF1F51"/><stop offset="66%" stop-color="#FF3648"/><stop offset="71%" stop-color="#FF593B"/><stop offset="77%" stop-color="#FF7231"/><stop offset="81%" stop-color="#FF812B"/><stop offset="85%" stop-color="#FF8629"/></linearGradient></defs><g><polygon fill="url(#linearGradient-1)" points="212.48 0 139.94 26.46 81.92 0 25.6 142.5 90.46 116.06 89.6 188.58 228.7 191.14 256 50.34"/><polygon fill="url(#linearGradient-2)" points="186.02 82.78 93.86 22.18 19.62 68.26 182.62 131.42"/><polygon fill="url(#linearGradient-3)" points="106.66 249.18 202.24 236.38 171.52 177.5 192 153.6 193.7 138.24 93.86 22.18 0 45.22 0 180.06 53.76 256 106.66 249.18 106.66 249.18 106.66 249.18"/><rect width="170.66" height="170.66" x="42.66" y="42.66" fill="#000"/><path fill="#FFF" d="M126.3,59.74 L143.36,59.74 L161.28,92.16 L180.06,59.74 L196.26,59.74 L196.26,136.54 L180.9,136.54 L180.9,86.18 L161.28,119.46 L141.66,87.04 L141.66,136.54 L126.3,136.54 L126.3,59.74 Z M59.74,59.74 L91.3,59.74 C99.8333333,59.74 106.66,62.3 111.78,67.42 C116.04,71.68 117.78,77.66 117.78,85.42 C117.798423,90.8341811 116.324466,96.1487295 113.52,100.78 C111.053261,104.945845 107.07897,108.003542 102.42,109.32 L119.48,136.62 L101.48,136.62 L87.04,112.64 L74.24,112.64 L74.24,136.54 L58.88,136.54 L58.88,59.74 L59.74,59.74 Z M90.46,97.28 C93.5220834,97.4830749 96.5545691,96.5740394 99,94.72 C101.128606,92.7256458 102.361813,89.9563375 102.42,87.04 C102.587678,83.8295173 101.337331,80.7073061 99,78.5 C96.5463497,76.6672954 93.5146214,75.7797872 90.46,76 L75.1,76 L75.1,98.14 L90.46,98.14 L90.46,97.28 Z M59.74,185.18 L123.74,185.18 L123.74,195.42 L59.74,195.42 L59.74,185.18 Z"/></g></svg>